# xmcd CD database file
#
# Track frame offsets:
#	183
#	22180
#	46173
#	56718
#	70895
#	97163
#	114408
#	144025
#	155848
#	176438
#
# Disc length: 2643 seconds
#
# Revision: 3
# Processed by: cddbd v1.5.2PL0 Copyright (c) Steve Scherf et al.
# Submitted via: CDex 1.51
#
DISCID=880a510a
DTITLE=Johnny Winter - 3rd Degree
DYEAR=1986
DGENRE=Blues
TTITLE0=Mojo Boogie
TTITLE1=Love, Life And Money
TTITLE2=Evil On My Mind
TTITLE3=See See Baby
TTITLE4=Tin Pan Alley
TTITLE5=I'm Good
TTITLE6=Third Degree
TTITLE7=Shake Your Moneymaker
TTITLE8=Bad Girl Blues
TTITLE9=Broke And Lonely
EXTD=YEAR: 1986
EXTT0=
EXTT1=
EXTT2=
EXTT3=
EXTT4=
EXTT5=
EXTT6=
EXTT7=
EXTT8=
EXTT9=
PLAYORDER=
